<?xml version="1.0" encoding="utf-8"?>
<!-- Svg Vector Icons : http://www.onlinewebfonts.com/icon -->
<!DOCTYPE svg PUBLIC "-//W3C//DTD SVG 1.1//EN" "http://www.w3.org/Graphics/SVG/1.1/DTD/svg11.dtd">
<svg height="24" width="24" fill="#ffffff" version="1.1" xmlns="http://www.w3.org/2000/svg" xmlns:xlink="http://www.w3.org/1999/xlink" x="0px" y="0px" viewBox="0 0 1000 1000" enable-background="new 0 0 1000 1000" xml:space="preserve">
<metadata> Svg Vector Icons : http://www.onlinewebfonts.com/icon </metadata>
<g><path d="M581.3,553.8v-2.2l-12.9-172.3c-0.5-9.2-9.1-17.2-18.3-17.2H449.9c-9.2,0-17.8,8.1-18.3,17.2l-12.9,172.3v2.2c-0.5,8.6,7,15.1,15.6,15.1h131.4C574.3,568.9,581.8,562.5,581.3,553.8L581.3,553.8z M990,805.3c0,26.4-8.1,39.3-24.8,39.3H586.2c9.2,0,16.7-8.1,16.2-17.2l-10.8-137.8c-0.5-9.2-9.2-17.2-18.3-17.2H426.8c-9.2,0-17.8,8.1-18.3,17.2l-10.8,137.8c-0.5,9.2,7,17.2,16.2,17.2H34.8c-16.7,0-24.8-12.9-24.8-39.3c0-19.4,4.8-40.4,14-62.5l224.5-562.2c5.9-13.5,19.9-25.3,34.5-25.3h182.5c-9.2,0-17.8,8.1-18.3,17.2L439.2,276c-0.5,10.2,7,17.2,16.2,17.2h89.4c9.2,0,16.7-7,16.2-17.2l-8.1-103.4c-0.5-9.2-9.1-17.2-18.3-17.2H717c14.5,0,28.5,11.8,34.5,25.3L976,742.8C985.1,764.9,990,785.9,990,805.3z"/></g>
</svg>